<svg width="619" height="163" viewBox="0 0 619 163" fill="none" xmlns="http://www.w3.org/2000/svg">
<path d="M272.098 89H230.984V17.6133H272.098V30.0156H246.121V45.6895H270.291V58.0918H246.121V76.5H272.098V89ZM352.834 53.209C352.834 61.6074 351.337 68.6549 348.342 74.3516C345.38 80.0156 341.018 84.166 335.256 86.8027L352.443 105.992H333.059L319.973 89.9766H318.85C307.912 89.9766 299.514 86.8027 293.654 80.4551C287.795 74.1074 284.865 64.9928 284.865 53.1113C284.865 41.2298 287.795 32.1641 293.654 25.9141C299.546 19.6315 307.977 16.4902 318.947 16.4902C329.917 16.4902 338.299 19.6478 344.094 25.9629C349.921 32.278 352.834 41.36 352.834 53.209ZM300.734 53.209C300.734 61.1842 302.248 67.1901 305.275 71.2266C308.303 75.263 312.827 77.2812 318.85 77.2812C330.926 77.2812 336.965 69.2572 336.965 53.209C336.965 37.1283 330.959 29.0879 318.947 29.0879C312.925 29.0879 308.384 31.1224 305.324 35.1914C302.264 39.2279 300.734 45.2337 300.734 53.209ZM426.734 17.6133V63.8047C426.734 69.0781 425.546 73.7005 423.17 77.6719C420.826 81.6432 417.424 84.6868 412.965 86.8027C408.505 88.9186 403.232 89.9766 397.145 89.9766C387.965 89.9766 380.836 87.6328 375.758 82.9453C370.68 78.2253 368.141 71.7799 368.141 63.6094V17.6133H383.229V61.3145C383.229 66.8158 384.335 70.8522 386.549 73.4238C388.762 75.9954 392.424 77.2812 397.535 77.2812C402.483 77.2812 406.064 75.9954 408.277 73.4238C410.523 70.8197 411.646 66.7507 411.646 61.2168V17.6133H426.734ZM488.916 89L483.74 72.0078H457.715L452.539 89H436.23L461.426 17.3203H479.932L505.225 89H488.916ZM480.127 59.3125C475.342 43.9154 472.64 35.2077 472.021 33.1895C471.436 31.1712 471.012 29.5762 470.752 28.4043C469.678 32.571 466.602 42.8737 461.523 59.3125H480.127ZM515.258 89V17.6133H530.395V76.5H559.35V89H515.258ZM614.939 69.1758C614.939 75.6211 612.612 80.6992 607.957 84.4102C603.335 88.1211 596.889 89.9766 588.621 89.9766C581.004 89.9766 574.266 88.5443 568.406 85.6797V71.6172C573.224 73.7656 577.293 75.2793 580.613 76.1582C583.966 77.0371 587.026 77.4766 589.793 77.4766C593.113 77.4766 595.652 76.8418 597.41 75.5723C599.201 74.3027 600.096 72.4147 600.096 69.9082C600.096 68.5085 599.705 67.2715 598.924 66.1973C598.143 65.0905 596.987 64.0326 595.457 63.0234C593.96 62.0143 590.883 60.403 586.229 58.1895C581.867 56.1387 578.595 54.1693 576.414 52.2812C574.233 50.3932 572.492 48.196 571.189 45.6895C569.887 43.1829 569.236 40.2533 569.236 36.9004C569.236 30.5853 571.368 25.6211 575.633 22.0078C579.93 18.3945 585.854 16.5879 593.406 16.5879C597.117 16.5879 600.649 17.0273 604.002 17.9062C607.387 18.7852 610.919 20.0221 614.598 21.6172L609.715 33.3848C605.906 31.8223 602.749 30.7318 600.242 30.1133C597.768 29.4948 595.327 29.1855 592.918 29.1855C590.053 29.1855 587.856 29.8529 586.326 31.1875C584.796 32.5221 584.031 34.2637 584.031 36.4121C584.031 37.7467 584.34 38.9186 584.959 39.9277C585.577 40.9043 586.554 41.8646 587.889 42.8086C589.256 43.7201 592.462 45.3802 597.508 47.7891C604.181 50.9792 608.755 54.1855 611.229 57.4082C613.702 60.5983 614.939 64.5208 614.939 69.1758Z" fill="white"/>
<path d="M252.902 160H232.712V124.307H252.902V129.238H238.547V138.955H251.999V143.838H238.547V155.044H252.902V160ZM287.936 160H281.222L272.286 145.4L263.277 160H257.027L268.868 141.494L257.784 124.307H264.278L272.53 137.808L280.782 124.307H287.081L275.924 141.592L287.936 160ZM308.931 128.799C305.578 128.799 302.941 129.987 301.021 132.363C299.1 134.74 298.14 138.019 298.14 142.202C298.14 146.58 299.059 149.893 300.898 152.139C302.754 154.385 305.431 155.508 308.931 155.508C310.444 155.508 311.909 155.361 313.325 155.068C314.741 154.759 316.214 154.368 317.744 153.896V158.901C314.945 159.959 311.771 160.488 308.223 160.488C302.998 160.488 298.986 158.91 296.187 155.752C293.387 152.578 291.987 148.045 291.987 142.153C291.987 138.442 292.663 135.195 294.014 132.412C295.381 129.629 297.35 127.497 299.922 126.016C302.493 124.535 305.513 123.794 308.979 123.794C312.625 123.794 315.994 124.559 319.087 126.089L316.987 130.947C315.783 130.378 314.505 129.881 313.154 129.458C311.82 129.019 310.412 128.799 308.931 128.799ZM354.584 160H348.725V143.911H332.27V160H326.435V124.307H332.27V138.906H348.725V124.307H354.584V160ZM387.127 160L383.562 150.088H369.915L366.424 160H360.271L373.626 124.16H379.974L393.328 160H387.127ZM382.024 145.059L378.68 135.342C378.436 134.691 378.094 133.665 377.654 132.266C377.231 130.866 376.938 129.84 376.775 129.189C376.336 131.191 375.693 133.381 374.847 135.757L371.624 145.059H382.024ZM428.776 160H421.623L404.069 131.558H403.874L403.996 133.145C404.224 136.172 404.338 138.939 404.338 141.445V160H399.04V124.307H406.12L423.625 152.603H423.771C423.739 152.228 423.674 150.869 423.576 148.525C423.479 146.165 423.43 144.326 423.43 143.008V124.307H428.776V160ZM453.8 140.64H466.935V158.56C464.786 159.259 462.719 159.756 460.733 160.049C458.764 160.342 456.632 160.488 454.337 160.488C448.933 160.488 444.767 158.893 441.837 155.703C438.907 152.497 437.442 147.98 437.442 142.153C437.442 136.408 439.094 131.916 442.398 128.677C445.702 125.422 450.252 123.794 456.046 123.794C459.773 123.794 463.305 124.51 466.642 125.942L464.591 130.801C461.694 129.466 458.797 128.799 455.899 128.799C452.091 128.799 449.08 129.995 446.866 132.388C444.653 134.78 443.546 138.052 443.546 142.202C443.546 146.564 444.539 149.884 446.524 152.163C448.526 154.425 451.399 155.557 455.143 155.557C457.031 155.557 459.049 155.321 461.197 154.849V145.645H453.8V140.64ZM496.719 160H476.528V124.307H496.719V129.238H482.363V138.955H495.815V143.838H482.363V155.044H496.719V160Z" fill="white"/>
<path d="M100 58C100 30.3858 77.6142 8 50 8C22.3858 8 0 30.3858 0 58H100ZM98 106.5L75.269 151.034L98 162.637L120.731 151.034L98 106.5ZM196 58C196 30.3858 173.614 8 146 8C118.386 8 96 30.3858 96 58H196ZM0 58C0 80.3412 10.7891 97.2743 18.3306 106.78C26.4472 117.01 36.0489 125.205 43.7353 131.05C51.707 137.112 59.4123 141.988 64.9731 145.29C67.8047 146.971 70.2063 148.318 71.972 149.283C72.8576 149.766 73.5909 150.158 74.147 150.451C74.4253 150.598 74.6599 150.72 74.8478 150.817C74.9417 150.866 75.024 150.909 75.0943 150.945C75.1295 150.963 75.1616 150.979 75.1908 150.994C75.2053 151.002 75.2191 151.009 75.2322 151.015C75.2387 151.019 75.2479 151.023 75.2511 151.025C75.2601 151.03 75.269 151.034 98 106.5C120.731 61.9657 120.739 61.9701 120.748 61.9743C120.75 61.9756 120.758 61.9797 120.763 61.9823C120.774 61.9875 120.783 61.9923 120.792 61.9968C120.809 62.0058 120.824 62.0133 120.836 62.0196C120.86 62.032 120.874 62.039 120.877 62.0406C120.883 62.0438 120.848 62.0257 120.775 61.9871C120.628 61.9096 120.33 61.7512 119.903 61.5181C119.044 61.0488 117.695 60.2948 116.027 59.3041C112.588 57.2621 108.293 54.5131 104.265 51.4499C99.9511 48.1698 97.5528 45.74 96.6694 44.6265C95.2109 42.7882 100 47.6588 100 58H0ZM98 106.5C120.731 151.034 120.74 151.03 120.749 151.025C120.752 151.023 120.761 151.019 120.768 151.015C120.781 151.009 120.795 151.002 120.809 150.994C120.838 150.979 120.871 150.963 120.906 150.945C120.976 150.909 121.058 150.866 121.152 150.817C121.34 150.72 121.575 150.598 121.853 150.451C122.409 150.158 123.142 149.766 124.028 149.283C125.794 148.318 128.195 146.971 131.027 145.29C136.588 141.988 144.293 137.112 152.265 131.05C159.951 125.205 169.553 117.01 177.669 106.78C185.211 97.2743 196 80.3412 196 58H96C96 47.6588 100.789 42.7882 99.3306 44.6265C98.4472 45.74 96.0489 48.1698 91.7353 51.4499C87.707 54.5131 83.4123 57.2621 79.9731 59.3041C78.3047 60.2948 76.9563 61.0488 76.097 61.5181C75.6701 61.7512 75.3722 61.9096 75.2252 61.9871C75.1519 62.0257 75.1169 62.0438 75.1231 62.0406C75.1263 62.039 75.1397 62.032 75.1639 62.0196C75.176 62.0133 75.1908 62.0058 75.2083 61.9968C75.217 61.9923 75.2264 61.9875 75.2365 61.9823C75.2416 61.9797 75.2497 61.9756 75.2522 61.9743C75.2605 61.9701 75.269 61.9657 98 106.5Z" fill="#FFB900"/>
</svg>
