<svg width="152" height="48" viewBox="0 0 152 48" fill="none" xmlns="http://www.w3.org/2000/svg">
<path d="M39.6705 9.30969H0V20.6427H39.6705V9.30969Z" fill="#FFB900"/>
<path d="M10.7104 47.2021L36.7976 5.00592L28.7005 9.77272e-06L2.61332 42.1962L10.7104 47.2021Z" fill="#FFB900"/>
<path d="M39.6705 26.246H0V37.579H39.6705V26.246Z" fill="#FFB900"/>
<path d="M62.4053 9.86426V17.7168C62.4053 18.6133 62.2033 19.3991 61.7993 20.0742C61.4009 20.7493 60.8226 21.2668 60.0645 21.6265C59.3063 21.9862 58.4098 22.166 57.375 22.166C55.8145 22.166 54.6025 21.7676 53.7393 20.9707C52.876 20.1683 52.4443 19.0726 52.4443 17.6836V9.86426H55.0093V17.2935C55.0093 18.2287 55.1974 18.9149 55.5737 19.3521C55.95 19.7892 56.5726 20.0078 57.4414 20.0078C58.2826 20.0078 58.8913 19.7892 59.2676 19.3521C59.6494 18.9093 59.8403 18.2176 59.8403 17.2769V9.86426H62.4053ZM77.1431 22H73.8726L68.5933 12.8193H68.5186C68.6237 14.4408 68.6763 15.5973 68.6763 16.2891V22H66.377V9.86426H69.6226L74.8936 18.9536H74.9517C74.8687 17.3765 74.8271 16.2614 74.8271 15.6084V9.86426H77.1431V22ZM88.1953 22H81.2061V9.86426H88.1953V11.9727H83.7793V14.6372H87.8882V16.7456H83.7793V19.875H88.1953V22ZM102.75 15.9155C102.75 17.3433 102.496 18.5413 101.987 19.5098C101.483 20.4727 100.742 21.1782 99.7622 21.6265L102.684 24.8887H99.3887L97.1641 22.166H96.9731C95.1138 22.166 93.686 21.6265 92.6899 20.5474C91.6938 19.4683 91.1958 17.9188 91.1958 15.8989C91.1958 13.8791 91.6938 12.3379 92.6899 11.2754C93.6916 10.2074 95.1248 9.67334 96.9897 9.67334C98.8547 9.67334 100.28 10.2101 101.265 11.2837C102.255 12.3573 102.75 13.9012 102.75 15.9155ZM93.8936 15.9155C93.8936 17.2713 94.1509 18.2923 94.6655 18.9785C95.1802 19.6647 95.9494 20.0078 96.9731 20.0078C99.0262 20.0078 100.053 18.6437 100.053 15.9155C100.053 13.1818 99.0317 11.8149 96.9897 11.8149C95.966 11.8149 95.194 12.1608 94.6738 12.8525C94.1536 13.5387 93.8936 14.5597 93.8936 15.9155ZM116.144 9.86426V17.7168C116.144 18.6133 115.942 19.3991 115.538 20.0742C115.139 20.7493 114.561 21.2668 113.803 21.6265C113.045 21.9862 112.148 22.166 111.113 22.166C109.553 22.166 108.341 21.7676 107.478 20.9707C106.614 20.1683 106.183 19.0726 106.183 17.6836V9.86426H108.748V17.2935C108.748 18.2287 108.936 18.9149 109.312 19.3521C109.688 19.7892 110.311 20.0078 111.18 20.0078C112.021 20.0078 112.63 19.7892 113.006 19.3521C113.388 18.9093 113.579 18.2176 113.579 17.2769V9.86426H116.144ZM127.544 22L126.665 19.1113H122.24L121.36 22H118.588L122.871 9.81445H126.017L130.317 22H127.544ZM126.05 16.9531C125.237 14.3356 124.778 12.8553 124.672 12.5122C124.573 12.1691 124.501 11.8979 124.457 11.6987C124.274 12.4071 123.751 14.1585 122.888 16.9531H126.05ZM132.853 22V9.86426H135.426V19.875H140.348V22H132.853ZM150.628 18.6299C150.628 19.7256 150.233 20.5889 149.441 21.2197C148.656 21.8506 147.56 22.166 146.154 22.166C144.859 22.166 143.714 21.9225 142.718 21.4355V19.0449C143.537 19.4102 144.229 19.6675 144.793 19.8169C145.363 19.9663 145.883 20.041 146.354 20.041C146.918 20.041 147.35 19.9331 147.648 19.7173C147.953 19.5015 148.105 19.1805 148.105 18.7544C148.105 18.5164 148.039 18.3062 147.906 18.1235C147.773 17.9354 147.576 17.7555 147.316 17.584C147.062 17.4124 146.539 17.1385 145.748 16.7622C145.006 16.4136 144.45 16.0788 144.079 15.7578C143.708 15.4368 143.412 15.0633 143.191 14.6372C142.97 14.2111 142.859 13.7131 142.859 13.1431C142.859 12.0695 143.221 11.2256 143.946 10.6113C144.677 9.99707 145.684 9.68994 146.968 9.68994C147.599 9.68994 148.199 9.76465 148.769 9.91406C149.345 10.0635 149.945 10.2738 150.57 10.5449L149.74 12.5454C149.093 12.2798 148.556 12.0944 148.13 11.9893C147.709 11.8841 147.294 11.8315 146.885 11.8315C146.398 11.8315 146.024 11.945 145.764 12.1719C145.504 12.3988 145.374 12.6948 145.374 13.0601C145.374 13.2869 145.427 13.4862 145.532 13.6577C145.637 13.8237 145.803 13.987 146.03 14.1475C146.262 14.3024 146.807 14.5846 147.665 14.9941C148.799 15.5365 149.577 16.0815 149.998 16.6294C150.418 17.1717 150.628 17.8385 150.628 18.6299Z" fill="white"/>
<path d="M55.7754 28.5117C54.9707 28.5117 54.3379 28.7969 53.877 29.3672C53.416 29.9375 53.1855 30.7246 53.1855 31.7285C53.1855 32.7793 53.4062 33.5742 53.8477 34.1133C54.293 34.6523 54.9355 34.9219 55.7754 34.9219C56.1387 34.9219 56.4902 34.8867 56.8301 34.8164C57.1699 34.7422 57.5234 34.6484 57.8906 34.5352V35.7363C57.2188 35.9902 56.457 36.1172 55.6055 36.1172C54.3516 36.1172 53.3887 35.7383 52.7168 34.9805C52.0449 34.2188 51.709 33.1309 51.709 31.7168C51.709 30.8262 51.8711 30.0469 52.1953 29.3789C52.5234 28.7109 52.9961 28.1992 53.6133 27.8438C54.2305 27.4883 54.9551 27.3105 55.7871 27.3105C56.6621 27.3105 57.4707 27.4941 58.2129 27.8613L57.709 29.0273C57.4199 28.8906 57.1133 28.7715 56.7891 28.6699C56.4688 28.5645 56.1309 28.5117 55.7754 28.5117ZM62.877 29.4023C63.1543 29.4023 63.3828 29.4219 63.5625 29.4609L63.4277 30.7441C63.2324 30.6973 63.0293 30.6738 62.8184 30.6738C62.2676 30.6738 61.8203 30.8535 61.4766 31.2129C61.1367 31.5723 60.9668 32.0391 60.9668 32.6133V36H59.5898V29.5195H60.668L60.8496 30.6621H60.9199C61.1348 30.2754 61.4141 29.9688 61.7578 29.7422C62.1055 29.5156 62.4785 29.4023 62.877 29.4023ZM63.7852 29.5195H65.2852L66.6035 33.1934C66.8027 33.7168 66.9355 34.209 67.002 34.6699H67.0488C67.084 34.4551 67.1484 34.1953 67.2422 33.8906C67.3359 33.582 67.832 32.125 68.7305 29.5195H70.2188L67.4473 36.8613C66.9434 38.209 66.1035 38.8828 64.9277 38.8828C64.623 38.8828 64.3262 38.8496 64.0371 38.7832V37.6934C64.2441 37.7402 64.4805 37.7637 64.7461 37.7637C65.4102 37.7637 65.877 37.3789 66.1465 36.6094L66.3867 36L63.7852 29.5195ZM74.4902 36.1172C73.6699 36.1172 73.0332 35.8223 72.5801 35.2324H72.498C72.5527 35.7793 72.5801 36.1113 72.5801 36.2285V38.8828H71.2031V29.5195H72.3164C72.3477 29.6406 72.4121 29.9297 72.5098 30.3867H72.5801C73.0098 29.7305 73.6543 29.4023 74.5137 29.4023C75.3223 29.4023 75.9512 29.6953 76.4004 30.2812C76.8535 30.8672 77.0801 31.6895 77.0801 32.748C77.0801 33.8066 76.8496 34.6328 76.3887 35.2266C75.9316 35.8203 75.2988 36.1172 74.4902 36.1172ZM74.1562 30.5273C73.6094 30.5273 73.209 30.6875 72.9551 31.0078C72.7051 31.3281 72.5801 31.8398 72.5801 32.543V32.748C72.5801 33.5371 72.7051 34.1094 72.9551 34.4648C73.2051 34.8164 73.6133 34.9922 74.1797 34.9922C74.6562 34.9922 75.0234 34.7969 75.2812 34.4062C75.5391 34.0156 75.668 33.459 75.668 32.7363C75.668 32.0098 75.5391 31.4609 75.2812 31.0898C75.0273 30.7148 74.6523 30.5273 74.1562 30.5273ZM81.0938 35.0039C81.4297 35.0039 81.7656 34.9512 82.1016 34.8457V35.8828C81.9492 35.9492 81.752 36.0039 81.5098 36.0469C81.2715 36.0938 81.0234 36.1172 80.7656 36.1172C79.4609 36.1172 78.8086 35.4297 78.8086 34.0547V30.5625H77.9238V29.9531L78.873 29.4492L79.3418 28.0781H80.1914V29.5195H82.0371V30.5625H80.1914V34.0312C80.1914 34.3633 80.2734 34.6094 80.4375 34.7695C80.6055 34.9258 80.8242 35.0039 81.0938 35.0039ZM89.1504 32.748C89.1504 33.8066 88.8789 34.6328 88.3359 35.2266C87.793 35.8203 87.0371 36.1172 86.0684 36.1172C85.4629 36.1172 84.9277 35.9805 84.4629 35.707C83.998 35.4336 83.6406 35.041 83.3906 34.5293C83.1406 34.0176 83.0156 33.4238 83.0156 32.748C83.0156 31.6973 83.2852 30.877 83.8242 30.2871C84.3633 29.6973 85.123 29.4023 86.1035 29.4023C87.041 29.4023 87.7832 29.7051 88.3301 30.3105C88.877 30.9121 89.1504 31.7246 89.1504 32.748ZM84.4336 32.748C84.4336 34.2441 84.9863 34.9922 86.0918 34.9922C87.1855 34.9922 87.7324 34.2441 87.7324 32.748C87.7324 31.2676 87.1816 30.5273 86.0801 30.5273C85.502 30.5273 85.082 30.7188 84.8203 31.1016C84.5625 31.4844 84.4336 32.0332 84.4336 32.748Z" fill="white"/>
</svg>
