<svg width="152" height="48" viewBox="0 0 152 48" fill="none" xmlns="http://www.w3.org/2000/svg">
<path d="M52.0683 33.3232C52.0683 35.1527 53.1116 36.4212 54.7833 36.4212C56.2337 36.4212 57.2731 35.6546 57.4509 34.2557H55.1785V32.9399H58.8499V37.579H57.5458V36.354C57.0202 37.1799 56.0163 37.7173 54.7003 37.7173C52.2738 37.7173 50.5388 35.9351 50.5388 33.3153C50.5388 30.6954 52.3093 28.9053 54.7833 28.9053C56.6724 28.9053 58.182 29.909 58.7353 31.5924L57.3047 32.0903C56.9846 30.972 55.9294 30.2291 54.7675 30.3002C53.0879 30.3002 52.0683 31.4936 52.0683 33.3232Z" fill="#F7F8FC"/>
<path d="M63.4973 32.6316C62.4935 32.6316 61.9165 33.1571 61.9165 34.3505V37.5789H60.4661V31.375H61.7821V32.2364C62.1773 31.6081 62.8887 31.2525 63.6277 31.3157H63.8292V32.6434C63.7186 32.6355 63.6079 32.6316 63.4973 32.6316Z" fill="#F7F8FC"/>
<path d="M64.2358 34.4848C64.2437 32.7026 65.6941 31.2682 67.4765 31.2761C69.2589 31.284 70.6935 32.7342 70.6856 34.5164C70.6777 36.2946 69.2312 37.729 67.4528 37.725C65.706 37.7566 64.2675 36.3657 64.2358 34.6191C64.2358 34.5756 64.2358 34.5322 64.2358 34.4848ZM67.4528 36.4605C68.4961 36.4605 69.2589 35.6702 69.2589 34.4848C69.2589 33.2993 68.4961 32.4853 67.4528 32.4853C66.4095 32.4853 65.6625 33.2756 65.6625 34.4848C65.6625 35.6939 66.4253 36.4684 67.4528 36.4684V36.4605Z" fill="#F7F8FC"/>
<path d="M77.2582 31.3749V37.5789H75.9421V36.7886C75.539 37.4287 74.8079 37.7923 74.0531 37.733C72.5434 37.733 71.7688 36.7372 71.7688 35.2909V31.3749H73.1915V35.0933C73.1915 35.9429 73.5393 36.5041 74.3969 36.5041C75.2545 36.5041 75.8315 35.9666 75.8315 34.9511V31.3749H77.2582Z" fill="#F7F8FC"/>
<path d="M78.7833 40.0684V31.375H80.0993V32.2601C80.5657 31.5646 81.364 31.1695 82.2018 31.2169C84.0435 31.2169 85.0829 32.6869 85.0829 34.469C85.0829 36.2512 84.0435 37.7093 82.2018 37.7093C81.4233 37.7488 80.6763 37.3892 80.2258 36.753V40.0684H78.7833ZM81.9054 36.4685C82.9804 36.4685 83.6483 35.5952 83.6483 34.4927C83.6483 33.3903 82.9804 32.4695 81.9054 32.4695C80.8305 32.4695 80.1586 33.3428 80.1586 34.4927C80.1586 35.6426 80.8147 36.4685 81.9054 36.4685Z" fill="#F7F8FC"/>
<path d="M39.6705 9.30969H0V20.6427H39.6705V9.30969Z" fill="#FFB900"/>
<path d="M39.6705 26.246H0V37.579H39.6705V26.246Z" fill="#FFB900"/>
<path d="M35.4212 5.33064L10.3857 45.8257L3.98975 41.8715L29.0252 1.37644L35.4212 5.33064Z" fill="#FFB900" stroke="#262835" stroke-width="2"/>
<path d="M62.4053 9.86426V17.7168C62.4053 18.6133 62.2033 19.3991 61.7993 20.0742C61.4009 20.7493 60.8226 21.2668 60.0645 21.6265C59.3063 21.9862 58.4098 22.166 57.375 22.166C55.8145 22.166 54.6025 21.7676 53.7393 20.9707C52.876 20.1683 52.4443 19.0726 52.4443 17.6836V9.86426H55.0093V17.2935C55.0093 18.2287 55.1974 18.9149 55.5737 19.3521C55.95 19.7892 56.5726 20.0078 57.4414 20.0078C58.2826 20.0078 58.8913 19.7892 59.2676 19.3521C59.6494 18.9093 59.8403 18.2176 59.8403 17.2769V9.86426H62.4053ZM77.1431 22H73.8726L68.5933 12.8193H68.5186C68.6237 14.4408 68.6763 15.5973 68.6763 16.2891V22H66.377V9.86426H69.6226L74.8936 18.9536H74.9517C74.8687 17.3765 74.8271 16.2614 74.8271 15.6084V9.86426H77.1431V22ZM88.1953 22H81.2061V9.86426H88.1953V11.9727H83.7793V14.6372H87.8882V16.7456H83.7793V19.875H88.1953V22ZM102.75 15.9155C102.75 17.3433 102.496 18.5413 101.987 19.5098C101.483 20.4727 100.742 21.1782 99.7622 21.6265L102.684 24.8887H99.3887L97.1641 22.166H96.9731C95.1138 22.166 93.686 21.6265 92.6899 20.5474C91.6938 19.4683 91.1958 17.9188 91.1958 15.8989C91.1958 13.8791 91.6938 12.3379 92.6899 11.2754C93.6916 10.2074 95.1248 9.67334 96.9897 9.67334C98.8547 9.67334 100.28 10.2101 101.265 11.2837C102.255 12.3573 102.75 13.9012 102.75 15.9155ZM93.8936 15.9155C93.8936 17.2713 94.1509 18.2923 94.6655 18.9785C95.1802 19.6647 95.9494 20.0078 96.9731 20.0078C99.0262 20.0078 100.053 18.6437 100.053 15.9155C100.053 13.1818 99.0317 11.8149 96.9897 11.8149C95.966 11.8149 95.194 12.1608 94.6738 12.8525C94.1536 13.5387 93.8936 14.5597 93.8936 15.9155ZM116.144 9.86426V17.7168C116.144 18.6133 115.942 19.3991 115.538 20.0742C115.139 20.7493 114.561 21.2668 113.803 21.6265C113.045 21.9862 112.148 22.166 111.113 22.166C109.553 22.166 108.341 21.7676 107.478 20.9707C106.614 20.1683 106.183 19.0726 106.183 17.6836V9.86426H108.748V17.2935C108.748 18.2287 108.936 18.9149 109.312 19.3521C109.688 19.7892 110.311 20.0078 111.18 20.0078C112.021 20.0078 112.63 19.7892 113.006 19.3521C113.388 18.9093 113.579 18.2176 113.579 17.2769V9.86426H116.144ZM127.544 22L126.665 19.1113H122.24L121.36 22H118.588L122.871 9.81445H126.017L130.317 22H127.544ZM126.05 16.9531C125.237 14.3356 124.778 12.8553 124.672 12.5122C124.573 12.1691 124.501 11.8979 124.457 11.6987C124.274 12.4071 123.751 14.1585 122.888 16.9531H126.05ZM132.853 22V9.86426H135.426V19.875H140.348V22H132.853ZM150.628 18.6299C150.628 19.7256 150.233 20.5889 149.441 21.2197C148.656 21.8506 147.56 22.166 146.154 22.166C144.859 22.166 143.714 21.9225 142.718 21.4355V19.0449C143.537 19.4102 144.229 19.6675 144.793 19.8169C145.363 19.9663 145.883 20.041 146.354 20.041C146.918 20.041 147.35 19.9331 147.648 19.7173C147.953 19.5015 148.105 19.1805 148.105 18.7544C148.105 18.5164 148.039 18.3062 147.906 18.1235C147.773 17.9354 147.576 17.7555 147.316 17.584C147.062 17.4124 146.539 17.1385 145.748 16.7622C145.006 16.4136 144.45 16.0788 144.079 15.7578C143.708 15.4368 143.412 15.0633 143.191 14.6372C142.97 14.2111 142.859 13.7131 142.859 13.1431C142.859 12.0695 143.221 11.2256 143.946 10.6113C144.677 9.99707 145.684 9.68994 146.968 9.68994C147.599 9.68994 148.199 9.76465 148.769 9.91406C149.345 10.0635 149.945 10.2738 150.57 10.5449L149.74 12.5454C149.093 12.2798 148.556 12.0944 148.13 11.9893C147.709 11.8841 147.294 11.8315 146.885 11.8315C146.398 11.8315 146.024 11.945 145.764 12.1719C145.504 12.3988 145.374 12.6948 145.374 13.0601C145.374 13.2869 145.427 13.4862 145.532 13.6577C145.637 13.8237 145.803 13.987 146.03 14.1475C146.262 14.3024 146.807 14.5846 147.665 14.9941C148.799 15.5365 149.577 16.0815 149.998 16.6294C150.418 17.1717 150.628 17.8385 150.628 18.6299Z" fill="white"/>
</svg>
